<?xml version="1.0" encoding="UTF-8" standalone="no"?>
<svg
   xmlns:dc="http://purl.org/dc/elements/1.1/"
   xmlns:cc="http://creativecommons.org/ns#"
   xmlns:rdf="http://www.w3.org/1999/02/22-rdf-syntax-ns#"
   xmlns:svg="http://www.w3.org/2000/svg"
   xmlns="http://www.w3.org/2000/svg"
   xmlns:sodipodi="http://sodipodi.sourceforge.net/DTD/sodipodi-0.dtd"
   xmlns:inkscape="http://www.inkscape.org/namespaces/inkscape"
   width="1289.0645"
   height="1366.3693"
   viewBox="0 0 1289.0645 1366.3693"
   version="1.1"
   xml:space="preserve"
   style="clip-rule:evenodd;fill-rule:evenodd;stroke-linejoin:round;stroke-miterlimit:2"
   id="svg10"
   sodipodi:docname="LOGO FIDDLE.svg"
   inkscape:version="0.92.2 5c3e80d, 2017-08-06"><metadata
     id="metadata16"><rdf:RDF><cc:Work
         rdf:about=""><dc:format>image/svg+xml</dc:format><dc:type
           rdf:resource="http://purl.org/dc/dcmitype/StillImage" /><dc:title></dc:title></cc:Work></rdf:RDF></metadata><defs
     id="defs14" /><sodipodi:namedview
     pagecolor="#ffffff"
     bordercolor="#666666"
     borderopacity="1"
     objecttolerance="10"
     gridtolerance="10"
     guidetolerance="10"
     inkscape:pageopacity="0"
     inkscape:pageshadow="2"
     inkscape:window-width="1440"
     inkscape:window-height="791"
     id="namedview12"
     showgrid="false"
     inkscape:zoom="0.01"
     inkscape:cx="-10814.109"
     inkscape:cy="-2181.2896"
     inkscape:window-x="0"
     inkscape:window-y="1"
     inkscape:window-maximized="1"
     inkscape:current-layer="svg10" /><g
     transform="matrix(3.12848,1.07024,-1.07024,3.12848,171.87351,967.20213)"
     id="g4"><path
       d="m 12.361,-277.022 c -5.212,5.566 -6.137,2.111 -7.962,-7.446 -0.915,-4.796 0.727,-12.853 9.764,-18.872 40.569,-27.021 80.451,-40.145 105.17,-42.544 43.179,-4.19 80.184,6.351 106.717,28.573 22.072,18.487 36.896,45.057 41.997,77.954 C 281.465,-152.833 202.9,-60.507 140.91,0.011 78.926,60.524 34.694,102.031 -4.704,127.477 c -4.172,2.694 -9.173,7.211 -10.869,1.459 -1.769,-6 4.699,-8.929 7.992,-11.752 30.409,-26.07 100.355,-91.709 122.32,-122.731 65.623,-92.684 116.001,-159.236 87.063,-261.982 -7.462,-26.494 -27.59,-54.203 -57.18,-59.87 -33.51,-6.417 -108.98,25.516 -132.261,50.377 z"
       style="fill-rule:nonzero"
       id="path2"
       inkscape:connector-curvature="0" /></g><g
     transform="matrix(3.62541,1.39206,1.39206,-3.62541,724.9395,477.03209)"
     id="g8"><path
       d="M 0.598,-0.013 C -14.104,-0.122 -25.534,10.983 -25.844,25.681 -26.171,41.219 -14.722,53.046 0.598,52.992 15.132,52.941 27.255,41.302 27.58,27.087 27.921,12.218 15.859,0.102 0.598,-0.013"
       style="fill-rule:nonzero"
       id="path6"
       inkscape:connector-curvature="0" /></g></svg>